<?xml version="1.0" encoding="UTF-8"?>
<svg id="uuid-b7272b70-d5e7-476c-8bb3-16246c06e5c3" data-name="Ebene 1" xmlns="http://www.w3.org/2000/svg" viewBox="0 0 32 32">
  <defs>
    <style>
      .uuid-009b0b6c-9ec5-41ad-94e6-cdacedc393eb {
        fill: #fff;
      }
    </style>
  </defs>
  <path class="uuid-009b0b6c-9ec5-41ad-94e6-cdacedc393eb" d="M19.67,23.49c-1.47-2.35-5.94-2.31-7.37-.1.04-.42.04-.85.15-1.26.17-.65.39-1.29.63-1.92.37-.94.51-1.88.1-2.84-.2-.47-.55-.81-1-1.07-.77-.45-1.43-1.02-1.82-1.85-.27-.59-.26-.59.23-.99.94-.76,1.6-2,.98-3.49-.02-.04-.02-.09-.05-.22.35-.09.69-.22,1.04-.27,1.07-.16,2.07.11,2.98.65.34.2.59.21.92,0,.74-.48,1.59-.7,2.46-.71.51,0,1.03.19,1.57.29-.1.36-.19.63-.24.9-.22,1.28.35,2.24,1.33,2.98.23.17.26.32.18.56-.33.99-1.05,1.63-1.9,2.13-.88.51-1.28,1.27-1.27,2.23,0,.55.14,1.13.35,1.65.38.98.74,1.95.75,3.02,0,.07,0,.14,0,.31h0ZM12.5,23.97c-.65.81-.89,1.75-.68,2.8.14.67.52,1.02,1.2,1.04.41.01.83-.05,1.22-.15,1.17-.31,2.33-.3,3.51,0,.42.11.86.16,1.3.15.66-.02,1.12-.45,1.18-1.11.04-.48,0-.97-.08-1.45-.08-.48-.31-.92-.69-1.29,0,.34.04.64-.01.93-.07.38-.16.77-.34,1.1-.23.4-.99.52-1.26.26-.26-.25-.18-.7.2-1.1.09-.09.19-.18.28-.27.14-.14.3-.27.43-.43.25-.3.36-.63.21-1.02-.29-.76-1.37-1.35-2.15-1.15-.47.12-.91.28-1.43.06-.29-.12-.68-.08-1-.01-.66.15-1.17.55-1.38,1.21-.18.59.26.94.63,1.29.13.12.28.22.38.36.11.15.21.32.27.49.12.41-.1.67-.52.69-.52.01-.96-.27-1.07-.81-.11-.51-.13-1.05-.19-1.59h0ZM21.02,10.06c-.46,1.39-.02,2.41,1.29,2.93.64.25,1.3.32,1.99.19,2.24-.4,3.95-1.54,5.04-3.54.24-.45.34-.98.5-1.49-.61.42-1.13.86-1.72,1.17-1.53.82-3.2.98-4.9.92-.73-.03-1.46-.12-2.21-.19h0ZM2.24,8.17c.03.19.04.37.08.56.26,1.07.85,1.95,1.68,2.66,1.45,1.24,3.06,2.07,5.04,1.78,1.2-.18,2.46-1.05,2.06-2.77-.06-.25-.14-.38-.45-.33-1.45.24-2.9.29-4.35.05-1.52-.25-2.92-.78-4.06-1.94h0ZM3.89,12.07s.07-.09.11-.14c-.1-.06-.21-.11-.29-.19-.61-.6-1.14-1.27-1.51-2.05-.58-1.22-.51-2.34.46-3.34.07-.08.15-.16.21-.24.67-.8,1.12-1.69.95-2.77-.06-.38-.24-.74-.36-1.1-.03.01-.07.02-.1.04,0,.03-.02.07-.02.1-.02,1.31-.55,2.27-1.78,2.87C.2,5.92-.34,7.43.21,8.85c.46,1.19,1.36,1.98,2.43,2.6.4.23.83.42,1.25.62h0ZM28.62,2.28c-.5.75-.6,1.55-.32,2.4.22.7.66,1.25,1.15,1.78.76.83.94,1.77.54,2.83-.34.89-.88,1.65-1.54,2.32-.14.15-.31.27-.46.4.02.02.05.05.07.07,1.25-.51,2.4-1.16,3.23-2.28,1.3-1.74.83-3.86-1.07-4.7-.48-.21-.84-.57-1.1-1.02-.32-.56-.44-1.17-.47-1.81h0ZM22.63,13.99c.15.53.33,1.08.46,1.63.24,1.03,1.04,1.52,2.03,1.15,1.1-.41,1.94-1.16,2.56-2.15.11-.19.18-.41.22-.63.07-.41-.16-.69-.57-.66-.36.03-.72.11-1.06.23-1.2.43-2.41.76-3.62.43h0ZM9.52,13.99c-.36.04-.66.09-.97.11-.98.07-1.89-.24-2.8-.55-.36-.12-.75-.2-1.14-.22-.31-.02-.51.19-.5.52,0,.17.02.36.1.52.57,1.14,1.48,1.93,2.66,2.38,1.03.39,1.91-.12,2.07-1.21.08-.56.21-1.09.58-1.56h0ZM22.57,15.45c-.06,1.02-.52,1.81-1.27,2.46-.35.3-.68.62-1,.95-.53.55-.68,1.21-.51,1.94.1.44.26.87.32,1.31.1.67.14,1.35.2,1.91.53-1.08,1.08-2.26,1.68-3.43.46-.88.79-1.8.87-2.79.07-.8-.02-1.58-.28-2.35h0ZM9.44,15.38c-.07.23-.13.37-.17.52-.28,1.32-.19,2.61.36,3.84.48,1.08,1.04,2.13,1.57,3.19.1.2.18.41.26.62.08.19.16.39.24.58-.02-1.1.2-2.14.49-3.17.23-.83.06-1.58-.56-2.19-.34-.33-.7-.64-1.04-.97-.47-.44-.86-.92-1-1.56-.06-.25-.09-.5-.15-.85h0ZM12.41,28.04c1.1,1.33,2.51,1.85,4.2,1.67,1.18-.12,2.66-.95,2.96-1.73-.65.31-1.28.21-1.93.04-.8-.22-1.62-.32-2.45-.16-.25.05-.51.08-.76.14-.67.18-1.34.3-2.02.03h0ZM12.8,19.18c.16-1.07-.25-1.78-1.05-2.28-.72-.44-1.47-.84-1.75-1.73.1,1.23.58,2.23,1.69,2.82.49.26.89.57,1.11,1.19h0ZM22.01,15.21c-.27.64-.7,1.1-1.31,1.42-.23.12-.44.27-.65.43-.7.52-1,1.28-.82,2.09.2-.57.6-.88,1.1-1.15,1.09-.58,1.59-1.56,1.69-2.78h0Z"/>
</svg>