<?xml version="1.0" standalone="no"?>
<!DOCTYPE svg PUBLIC "-//W3C//DTD SVG 20010904//EN"
 "http://www.w3.org/TR/2001/REC-SVG-20010904/DTD/svg10.dtd">
<svg version="1.0" xmlns="http://www.w3.org/2000/svg"
 width="831.000000pt" height="825.000000pt" viewBox="0 0 831.000000 825.000000"
 preserveAspectRatio="xMidYMid meet">

<g transform="translate(0.000000,825.000000) scale(0.100000,-0.100000)"
fill="#000000" stroke="none">
<path d="M3685 8234 c-285 -34 -555 -94 -825 -184 -1336 -442 -2360 -1549
-2695 -2915 -71 -290 -99 -476 -116 -791 -25 -442 29 -919 155 -1354 350
-1212 1255 -2215 2416 -2678 332 -133 642 -214 1015 -265 140 -19 205 -22 515
-22 311 0 375 3 515 22 780 108 1447 391 2045 869 803 642 1331 1548 1494
2565 40 248 50 378 49 664 0 638 -129 1212 -399 1773 -96 202 -154 303 -290
507 -601 907 -1545 1542 -2604 1753 -297 59 -363 65 -775 68 -284 2 -410 -1
-500 -12z m369 -1893 c342 -69 583 -214 735 -441 108 -161 144 -292 144 -525
1 -159 -9 -230 -50 -360 -57 -183 -131 -295 -312 -475 -208 -207 -451 -396
-801 -621 -386 -247 -479 -328 -551 -474 -43 -87 -44 -90 -44 -189 0 -129 26
-216 96 -321 84 -126 225 -219 379 -251 105 -22 304 -15 423 16 l87 23 53 -49
c28 -27 161 -152 295 -279 274 -259 260 -230 142 -290 -137 -69 -406 -146
-635 -181 -175 -27 -498 -25 -655 4 -442 81 -816 341 -1014 705 -57 105 -120
293 -142 422 -29 183 -10 427 47 596 69 204 276 477 507 670 48 40 91 76 96
80 4 4 -30 56 -77 116 -164 209 -245 354 -289 514 -20 74 -23 106 -22 274 0
172 3 199 26 286 63 234 205 433 404 565 165 110 335 170 589 208 17 2 127 3
245 1 173 -2 236 -7 324 -24z m2513 -2043 c128 -128 233 -236 233 -240 0 -4
-323 -312 -717 -684 -395 -372 -753 -711 -796 -753 l-77 -76 -126 125 c-69 69
-269 272 -445 452 l-320 326 241 224 c133 123 245 224 250 226 4 2 97 -90 206
-203 109 -113 202 -205 206 -205 5 0 254 234 556 519 301 286 549 520 552 520
3 1 110 -104 237 -231z"/>
<path d="M3580 5735 c-75 -22 -130 -56 -183 -115 -69 -77 -91 -142 -92 -270 0
-100 2 -109 34 -175 28 -57 59 -95 171 -207 76 -76 143 -138 149 -138 15 0
122 74 218 152 88 72 134 126 170 204 26 54 28 69 28 174 0 110 -1 118 -33
182 -40 82 -111 149 -190 179 -75 28 -198 34 -272 14z"/>
</g>
</svg>
