<?xml version="1.0" encoding="UTF-8"?>
<svg id="uuid-5cb9976e-4366-4165-a348-6f2d05d33cbf" data-name="Ebene 1" xmlns="http://www.w3.org/2000/svg" viewBox="0 0 32 32">
  <defs>
    <style>
      .uuid-6166ddf4-66a5-47db-a729-302170aea4e2 {
        fill: #fff;
      }
    </style>
  </defs>
  <path class="uuid-6166ddf4-66a5-47db-a729-302170aea4e2" d="M9.38,17.41v.75h1.32v.53h-1.32v1.04h-.66v-2.85h2.15v.53h-1.5ZM11.89,16.88v2.85h2.09v-.54h-1.43v-2.31h-.66ZM16.56,16.63c.08,0,.15-.02.2-.08.06-.05.09-.12.09-.2s-.03-.15-.09-.2c-.05-.05-.12-.08-.2-.08s-.15.03-.2.08c-.05.05-.08.12-.08.2s.02.15.08.2c.05.05.12.08.2.08h0ZM15.74,16.63c.08,0,.15-.02.2-.08.05-.05.08-.12.08-.2s-.03-.15-.08-.2c-.05-.05-.12-.08-.2-.08s-.15.03-.2.08c-.05.05-.08.12-.08.2s.03.15.08.2c.05.05.12.08.2.08h0ZM16.59,18.62h-.9l.45-1.09.45,1.09h0ZM16.8,19.12l.25.61h.69l-1.27-2.85h-.65l-1.27,2.85h.68l.25-.61h1.32ZM19.98,19.78c.25,0,.47-.04.67-.13.2-.09.37-.21.5-.38l-.42-.39c-.2.23-.43.34-.72.34-.18,0-.34-.04-.47-.11-.14-.08-.25-.19-.32-.32-.08-.14-.12-.29-.12-.47s.04-.33.12-.47c.08-.14.19-.24.32-.32.14-.08.29-.12.47-.12.28,0,.52.11.72.33l.42-.39c-.14-.16-.3-.29-.5-.37-.2-.09-.42-.13-.67-.13-.29,0-.55.06-.79.19-.23.13-.42.3-.55.53-.14.22-.2.48-.2.76s.07.54.2.76c.14.22.32.4.55.52.23.13.5.19.78.19h0ZM24.79,16.88h-.66v1.12h-1.29v-1.12h-.66v2.85h.66v-1.17h1.29v1.17h.66v-2.85h0ZM28.24,19.2h-1.55v-.66h1.32v-.51h-1.32v-.62h1.5v-.53h-2.15v2.85h2.2v-.53h0ZM31.95,16.88h-.65v1.73l-1.41-1.73h-.54v2.85h.65v-1.73l1.42,1.73h.54v-2.85h0ZM9.8,22.76h-.76v-1.42h.76c.28,0,.5.06.64.18.15.12.23.3.23.53s-.08.4-.23.52c-.15.12-.36.18-.64.18h0ZM9.81,21.08h-1.06v2.84h.3v-.9h.77c.36,0,.65-.09.85-.26.2-.17.31-.41.31-.71s-.1-.54-.31-.72c-.2-.17-.49-.26-.85-.26h0ZM13.97,22.92h-1.36l.68-1.52.68,1.52h0ZM14.08,23.17l.34.76h.32l-1.3-2.84h-.3l-1.3,2.84h.31l.34-.76h1.58ZM16.91,22.77h-.76v-1.42h.76c.28,0,.5.06.64.18.15.12.23.3.23.53s-.08.4-.23.52c-.15.12-.36.18-.64.18h0ZM17.8,23.93h.33l-.69-.97c.21-.07.37-.18.48-.33.11-.15.17-.34.17-.56,0-.3-.1-.54-.31-.72-.2-.17-.49-.26-.85-.26h-1.06v2.84h.3v-.9h.77c.08,0,.15,0,.23-.01l.65.91h0ZM19.99,21.34v2.58h.3v-2.58h1v-.26h-2.3v.26h1ZM24.79,21.08h-.3v2.31l-1.83-2.31h-.25v2.84h.3v-2.31l1.83,2.31h.25v-2.84h0ZM28.37,23.66h-1.71v-1.05h1.47v-.26h-1.47v-1.01h1.65v-.26h-1.95v2.84h2.01v-.26h0ZM30.78,22.77h-.76v-1.42h.76c.28,0,.5.06.64.18.15.12.23.3.23.53s-.08.4-.23.52c-.15.12-.36.18-.64.18h0ZM31.66,23.93h.33l-.69-.97c.21-.07.37-.18.48-.33.11-.15.17-.34.17-.56,0-.3-.1-.54-.31-.72-.2-.17-.49-.26-.85-.26h-1.06v2.84h.3v-.9h.77c.08,0,.15,0,.23-.01l.65.91h0ZM30.49,25.12v3.47H1.51V3.41h28.97v12.37h1.51V1.89H0v28.21h32v-4.98h-1.51Z"/>
</svg>