<?xml version="1.0" encoding="UTF-8"?>
<svg id="uuid-5c544fa7-cda1-4862-82a3-4a28bedb53fb" data-name="Ebene 1" xmlns="http://www.w3.org/2000/svg" viewBox="0 0 32 32">
  <defs>
    <style>
      .uuid-f31cf4af-cc83-44c3-b35e-2f0bdc3e20b9 {
        fill: #fff;
      }
    </style>
  </defs>
  <path class="uuid-f31cf4af-cc83-44c3-b35e-2f0bdc3e20b9" d="M8.01,6.18c.47-.52,1.13-.79,1.93-.79.74,0,1.35.23,1.83.67.5.48.75,1.12.75,1.9,0,.72-.22,1.33-.65,1.83-.32.36-.79.77-1.42,1.21l-.73.51-.65-.6c-.55-.52-.95-.92-1.19-1.23-.37-.48-.56-1.02-.56-1.63,0-.73.23-1.36.69-1.86M8.8,25.32c-.55-.26-1.01-.59-1.36-.98-.35-.41-.6-.84-.76-1.29-.15-.44-.22-.85-.22-1.22,0-.71.29-1.79,1.67-2.84.68-.52,1.37-.96,2.17-1.47.99-.63,2.2-1.4,3.61-2.54,1.68-1.36,2.74-2.45,3.25-3.33.65-1.1.98-2.37.98-3.78,0-1.19-.23-2.2-.68-2.99-.46-.83-1.07-1.52-1.82-2.04-.76-.53-1.65-.92-2.63-1.17-1.01-.25-2.05-.38-3.08-.38-1.17,0-2.32.17-3.31.5-.99.32-1.85.79-2.56,1.38-.71.59-1.26,1.31-1.69,2.22-.41.88-.61,1.89-.61,3,0,.95.17,1.83.5,2.59.34.8.95,1.74,1.81,2.78l.39.47-.48.39c-1.1.88-2.05,1.93-2.84,3.12-.76,1.13-1.15,2.51-1.15,4.11,0,1.08.21,2.13.63,3.21.41,1.04,1.04,1.99,1.87,2.84.83.84,1.87,1.53,3.1,2.06,1.23.53,2.69.79,4.33.79,1.25,0,2.53-.16,3.8-.48,1.01-.26,1.8-.48,2.71-.96l.49-.28-3.92-3.7c-1.37.51-3.14.52-4.21.02"/>
  <polygon class="uuid-f31cf4af-cc83-44c3-b35e-2f0bdc3e20b9" points="21.54 19.79 18.8 17.05 15.53 20.05 21.43 25.98 32 16.03 28.85 12.9 21.54 19.79"/>
</svg>